<?xml version="1.0" standalone="no"?>
<!DOCTYPE svg PUBLIC "-//W3C//DTD SVG 20010904//EN"
 "http://www.w3.org/TR/2001/REC-SVG-20010904/DTD/svg10.dtd">
<svg version="1.0" xmlns="http://www.w3.org/2000/svg"
 width="512.000000pt" height="512.000000pt" viewBox="0 0 512.000000 512.000000"
 preserveAspectRatio="xMidYMid meet">
<metadata>
Created by potrace 1.11, written by Peter Selinger 2001-2013
</metadata>
<g transform="translate(0.000000,512.000000) scale(0.100000,-0.100000)"
fill="#000000" stroke="none">
<path d="M2485 4055 c-79 -15 -135 -36 -155 -59 -7 -9 -18 -16 -24 -16 -13 -1
-86 -66 -86 -78 0 -4 -10 -18 -23 -32 -13 -14 -32 -44 -42 -68 l-19 -42 -330
0 c-354 1 -389 -3 -458 -51 -18 -12 -42 -34 -53 -47 -11 -13 -28 -34 -38 -45
-10 -11 -20 -31 -23 -44 -4 -13 -9 -23 -13 -23 -8 0 -10 -20 -12 -117 -1 -38
-7 -74 -13 -82 -8 -11 -8 -13 1 -8 8 5 11 -2 11 -23 -1 -16 -6 -30 -12 -30 -8
0 -8 -3 -1 -8 16 -10 17 -54 2 -45 -9 5 -9 3 -1 -8 15 -18 15 -149 0 -149 -8
0 -8 -2 0 -8 14 -9 14 -43 0 -61 -8 -11 -8 -13 0 -8 15 9 15 -185 0 -195 -8
-5 -8 -8 0 -8 6 0 12 -11 12 -25 0 -16 -5 -22 -12 -18 -8 5 -8 3 0 -8 15 -18
15 -149 0 -149 -8 0 -8 -2 0 -8 14 -9 14 -43 0 -61 -8 -11 -8 -13 0 -8 15 9
15 -185 0 -195 -8 -5 -8 -8 0 -8 6 0 12 -11 12 -25 0 -16 -5 -22 -12 -18 -8 5
-8 3 0 -8 15 -18 15 -149 0 -149 -8 0 -8 -2 0 -8 14 -9 14 -43 0 -61 -8 -11
-8 -13 0 -8 15 9 15 -185 0 -195 -8 -5 -8 -8 0 -8 6 0 12 -11 12 -25 0 -16 -5
-22 -12 -18 -8 5 -8 3 0 -8 15 -18 15 -149 0 -149 -8 0 -8 -2 0 -8 14 -9 14
-43 0 -61 -8 -11 -8 -13 0 -8 8 4 11 -19 11 -78 0 -58 -4 -82 -11 -78 -6 4 -5
-1 3 -10 11 -14 11 -20 0 -34 -8 -10 -9 -14 -2 -10 7 5 12 1 11 -10 0 -45 13
-89 39 -127 15 -22 31 -42 36 -44 4 -2 7 -10 7 -17 0 -8 9 -17 20 -20 18 -6
25 -17 21 -38 -1 -5 3 -6 8 -2 6 3 32 -4 58 -16 29 -14 71 -23 105 -24 32 -1
66 -9 75 -16 16 -12 17 -12 6 2 -11 13 -6 15 45 15 38 -1 61 -6 70 -16 11 -13
11 -13 7 0 -4 13 14 15 129 15 74 0 132 -3 130 -7 -2 -4 0 -10 6 -13 6 -4 9
-1 8 6 -2 9 54 12 234 13 130 0 234 -2 232 -6 -2 -4 0 -10 6 -13 6 -4 9 -1 8
6 -2 8 39 12 160 13 90 0 166 -2 169 -7 2 -4 12 -4 21 1 23 10 544 8 561 -3 8
-5 12 -4 9 1 -4 5 64 9 162 9 93 0 164 2 159 6 -6 3 7 13 29 22 51 20 94 57
130 112 16 24 32 42 35 39 3 -4 6 2 5 12 0 11 4 37 9 59 6 22 8 51 6 63 -2 17
1 21 9 16 10 -6 10 -4 2 7 -14 18 -14 52 0 61 8 5 8 8 0 8 -6 0 -11 28 -11 75
0 51 4 72 11 68 6 -4 5 1 -3 10 -11 14 -11 20 0 34 11 13 11 15 1 9 -16 -10
-13 25 3 36 6 5 6 8 -1 8 -6 0 -11 18 -11 40 0 21 4 37 9 34 5 -4 4 3 -3 14
-10 16 -10 24 -1 35 7 7 8 17 4 21 -12 13 -11 86 2 86 7 0 8 3 0 8 -14 10 -15
154 0 145 6 -4 5 1 -3 10 -11 14 -11 20 0 34 11 13 11 15 1 9 -16 -10 -13 25
3 36 6 5 6 8 -1 8 -13 0 -13 158 0 179 6 9 5 12 -1 8 -6 -4 -10 4 -10 18 0 14
5 25 11 25 8 0 8 2 0 8 -13 9 -13 240 0 261 6 9 5 12 -1 8 -6 -4 -10 4 -10 18
0 14 5 25 11 25 8 0 8 3 0 8 -14 10 -15 154 0 145 6 -4 5 1 -3 10 -11 14 -11
20 0 34 11 13 11 15 1 9 -16 -10 -13 25 3 36 6 5 6 8 -1 8 -6 0 -11 18 -11 40
0 21 4 37 9 34 5 -4 4 3 -3 14 -10 16 -10 24 -1 35 7 7 8 17 4 21 -11 12 -10
80 2 88 8 6 8 8 0 8 -7 0 -10 39 -10 118 2 145 -6 202 -36 257 -19 35 -98 122
-98 109 0 -5 -7 0 -15 10 -8 11 -15 16 -15 12 0 -5 -6 -4 -13 2 -31 26 -116
33 -426 35 -312 2 -324 3 -335 22 -45 82 -125 185 -143 185 -4 0 -16 8 -27 18
-25 22 -117 60 -163 67 -77 12 -91 12 -158 0z m112 -301 c13 -4 20 -10 17 -15
-3 -5 1 -6 9 -3 18 7 77 -54 70 -73 -3 -7 1 -13 8 -13 11 0 11 -3 -1 -10 -9
-6 -10 -10 -3 -10 14 0 13 -40 -2 -40 -5 0 -4 -4 3 -9 11 -7 11 -11 0 -22 -7
-8 -14 -20 -15 -27 -4 -18 -41 -52 -69 -62 -37 -14 -81 -12 -117 5 -37 18 -82
78 -74 99 3 8 1 16 -5 18 -13 5 7 82 27 101 8 8 11 17 8 21 -8 8 76 46 102 46
11 0 30 -3 42 -6z m-462 -597 c83 0 166 2 185 2 26 1 616 2 740 1 8 0 39 0 69
0 29 0 60 -5 69 -12 12 -10 14 -10 8 0 -5 9 6 12 47 12 40 0 56 -4 61 -16 4
-10 2 -13 -6 -8 -7 5 -8 3 -3 -6 7 -11 9 -98 6 -227 l-1 -43 -751 0 -751 0 2
32 c1 18 1 35 0 38 -7 21 -3 100 5 101 6 0 5 3 -1 5 -7 3 -8 20 -4 49 4 24 3
48 -3 54 -12 12 18 20 71 17 24 -2 45 1 48 5 2 4 17 4 32 1 15 -4 95 -6 177
-5z m-305 -607 c-8 -5 -10 -10 -4 -10 6 0 14 3 18 7 13 13 276 12 269 -1 -3
-6 0 -5 8 2 7 6 20 12 29 12 13 0 13 -1 0 -10 -8 -5 -10 -10 -4 -10 6 0 14 3
18 7 12 13 276 12 269 -1 -3 -6 0 -5 8 2 7 6 20 12 28 12 14 0 14 -1 1 -10 -8
-5 -10 -10 -4 -10 6 0 14 3 18 7 12 12 100 12 115 0 12 -9 13 -9 7 1 -9 15 -1
15 26 1 11 -6 18 -7 15 -2 -4 6 48 10 128 9 88 0 135 -4 135 -10 0 -8 3 -8 8
0 9 14 224 13 234 -1 5 -7 8 -7 8 0 0 6 9 11 20 12 11 1 18 -2 15 -7 -3 -5 -1
-12 5 -15 6 -4 9 -1 8 7 -2 9 10 13 42 13 59 1 80 -6 54 -16 -13 -5 -14 -8 -4
-8 12 -1 15 -13 13 -58 -2 -32 -5 -64 -8 -70 -2 -7 0 -13 6 -13 6 0 5 -8 -2
-21 -6 -12 -7 -19 -1 -15 10 6 9 -55 -2 -73 -3 -5 0 -12 6 -14 7 -3 -329 -6
-747 -6 l-760 0 0 92 c0 51 5 95 10 99 6 5 4 8 -4 8 -11 0 -10 4 5 16 10 8 13
13 7 9 -9 -4 -13 5 -13 34 0 32 4 41 18 41 14 0 15 -2 2 -10z m180 -604 c0 -7
3 -8 8 -1 10 14 105 15 114 1 5 -7 8 -7 8 -1 0 14 110 15 110 1 0 -7 3 -8 8
-1 10 14 105 15 114 1 5 -8 8 -8 8 0 0 12 112 11 145 -1 15 -5 17 -4 6 3 -11
8 -3 10 32 9 26 0 47 -6 47 -12 0 -7 3 -7 8 0 4 6 55 11 120 11 l112 1 6 -26
c3 -14 7 -31 9 -37 2 -6 -2 -17 -8 -24 -7 -7 -7 -10 -2 -7 12 6 13 -162 1
-181 -4 -7 -2 -12 5 -12 7 0 9 -3 5 -7 -9 -9 -1055 -10 -1050 -1 2 4 0 9 -5
13 -7 4 -7 15 -1 30 7 18 6 25 -3 25 -8 0 -7 4 3 10 8 5 11 10 5 10 -5 0 -10
17 -10 37 0 21 5 41 10 45 7 5 6 8 0 8 -14 0 -7 70 9 89 8 11 8 13 -1 7 -8 -4
-13 -2 -13 6 0 10 24 13 100 14 65 0 100 -3 100 -10z"/>
<path d="M2466 3682 c-3 -5 1 -9 9 -9 8 0 12 4 9 9 -3 4 -7 8 -9 8 -2 0 -6 -4
-9 -8z"/>
<path d="M2630 3660 c0 -5 5 -10 11 -10 5 0 7 5 4 10 -3 6 -8 10 -11 10 -2 0
-4 -4 -4 -10z"/>
<path d="M2435 3631 c-3 -5 -2 -12 3 -15 5 -3 9 1 9 9 0 17 -3 19 -12 6z"/>
<path d="M2280 3140 c-9 -6 -10 -10 -3 -10 6 0 15 5 18 10 8 12 4 12 -15 0z"/>
<path d="M2547 3139 c7 -7 15 -10 18 -7 3 3 -2 9 -12 12 -14 6 -15 5 -6 -5z"/>
<path d="M3026 3138 c3 -5 10 -6 15 -3 13 9 11 12 -6 12 -8 0 -12 -4 -9 -9z"/>
<path d="M1850 3136 c0 -2 8 -10 18 -17 15 -13 16 -12 3 4 -13 16 -21 21 -21
13z"/>
<path d="M1890 3119 c0 -5 5 -7 10 -4 6 3 10 8 10 11 0 2 -4 4 -10 4 -5 0 -10
-5 -10 -11z"/>
<path d="M2050 3119 c0 -5 5 -7 10 -4 6 3 10 8 10 11 0 2 -4 4 -10 4 -5 0 -10
-5 -10 -11z"/>
<path d="M3190 3121 c0 -6 4 -13 10 -16 6 -3 7 1 4 9 -7 18 -14 21 -14 7z"/>
<path d="M2555 3109 c-4 -6 -5 -12 -2 -15 2 -3 7 2 10 11 7 17 1 20 -8 4z"/>
<path d="M1916 3093 c-6 -14 -5 -15 5 -6 7 7 10 15 7 18 -3 3 -9 -2 -12 -12z"/>
<path d="M2135 3101 c-3 -5 -2 -12 3 -15 5 -3 9 1 9 9 0 17 -3 19 -12 6z"/>
<path d="M2375 3101 c-3 -5 -2 -12 3 -15 5 -3 9 1 9 9 0 17 -3 19 -12 6z"/>
<path d="M2450 3106 c0 -2 7 -7 16 -10 8 -3 12 -2 9 4 -6 10 -25 14 -25 6z"/>
<path d="M2615 3101 c-3 -5 -2 -12 3 -15 5 -3 9 1 9 9 0 17 -3 19 -12 6z"/>
<path d="M3030 3101 c0 -6 4 -13 10 -16 6 -3 7 1 4 9 -7 18 -14 21 -14 7z"/>
<path d="M3225 3100 c-3 -6 1 -7 9 -4 18 7 21 14 7 14 -6 0 -13 -4 -16 -10z"/>
<path d="M1856 3082 c-3 -5 1 -9 9 -9 8 0 12 4 9 9 -3 4 -7 8 -9 8 -2 0 -6 -4
-9 -8z"/>
<path d="M1970 3081 c0 -6 4 -13 10 -16 6 -3 7 1 4 9 -7 18 -14 21 -14 7z"/>
<path d="M2079 2533 c-13 -16 -12 -17 4 -4 9 7 17 15 17 17 0 8 -8 3 -21 -13z"/>
<path d="M2399 2533 c-13 -16 -12 -17 4 -4 9 7 17 15 17 17 0 8 -8 3 -21 -13z"/>
<path d="M1975 2531 c-3 -5 -2 -12 3 -15 5 -3 9 1 9 9 0 17 -3 19 -12 6z"/>
<path d="M2013 2525 c0 -8 4 -12 9 -9 5 3 6 10 3 15 -9 13 -12 11 -12 -6z"/>
<path d="M2295 2531 c-3 -5 -2 -12 3 -15 5 -3 9 1 9 9 0 17 -3 19 -12 6z"/>
<path d="M2333 2525 c0 -8 4 -12 9 -9 5 3 6 10 3 15 -9 13 -12 11 -12 -6z"/>
<path d="M2956 2513 c-6 -14 -5 -15 5 -6 7 7 10 15 7 18 -3 3 -9 -2 -12 -12z"/>
<path d="M2775 2501 c-3 -5 -2 -12 3 -15 5 -3 9 1 9 9 0 17 -3 19 -12 6z"/>
<path d="M2910 2506 c0 -2 7 -7 16 -10 8 -3 12 -2 9 4 -6 10 -25 14 -25 6z"/>
<path d="M3015 2501 c-3 -5 -2 -12 3 -15 5 -3 9 1 9 9 0 17 -3 19 -12 6z"/>
<path d="M3210 2505 c0 -7 30 -13 34 -7 3 4 -4 9 -15 9 -10 1 -19 0 -19 -2z"/>
<path d="M1990 2481 c0 -6 4 -13 10 -16 6 -3 7 1 4 9 -7 18 -14 21 -14 7z"/>
<path d="M1960 1940 c-9 -6 -10 -10 -3 -10 6 0 15 5 18 10 8 12 4 12 -15 0z"/>
<path d="M2080 1940 c-9 -6 -10 -10 -3 -10 6 0 15 5 18 10 8 12 4 12 -15 0z"/>
<path d="M2200 1940 c-9 -6 -10 -10 -3 -10 6 0 15 5 18 10 8 12 4 12 -15 0z"/>
<path d="M2320 1940 c-9 -6 -10 -10 -3 -10 6 0 15 5 18 10 8 12 4 12 -15 0z"/>
<path d="M2440 1940 c-9 -6 -10 -10 -3 -10 6 0 15 5 18 10 8 12 4 12 -15 0z"/>
<path d="M2559 1933 c-13 -16 -12 -17 4 -4 16 13 21 21 13 21 -2 0 -10 -8 -17
-17z"/>
<path d="M2680 1940 c-9 -6 -10 -10 -3 -10 6 0 15 5 18 10 8 12 4 12 -15 0z"/>
<path d="M2740 1940 c-9 -6 -10 -10 -3 -10 6 0 15 5 18 10 8 12 4 12 -15 0z"/>
<path d="M2790 1936 c0 -2 8 -10 18 -17 15 -13 16 -12 3 4 -13 16 -21 21 -21
13z"/>
<path d="M2834 1916 c1 -8 5 -18 8 -22 4 -3 5 1 4 10 -1 8 -5 18 -8 22 -4 3
-5 -1 -4 -10z"/>
<path d="M2476 1898 c3 -4 11 -5 19 -1 21 7 19 12 -4 10 -11 0 -18 -5 -15 -9z"/>
<path d="M2596 1902 c-3 -5 1 -9 9 -9 8 0 12 4 9 9 -3 4 -7 8 -9 8 -2 0 -6 -4
-9 -8z"/>
<path d="M2816 1853 c-6 -14 -5 -15 5 -6 7 7 10 15 7 18 -3 3 -9 -2 -12 -12z"/>
<path d="M2033 1845 c0 -8 4 -12 9 -9 5 3 6 10 3 15 -9 13 -12 11 -12 -6z"/>
<path d="M3906 1198 c3 -5 10 -6 15 -3 13 9 11 12 -6 12 -8 0 -12 -4 -9 -9z"/>
<path d="M3726 1062 c-3 -5 1 -9 9 -9 8 0 12 4 9 9 -3 4 -7 8 -9 8 -2 0 -6 -4
-9 -8z"/>
<path d="M3617 1035 c-4 -8 -3 -16 1 -19 4 -3 9 4 9 15 2 23 -3 25 -10 4z"/>
<path d="M2015 1020 c3 -5 8 -10 11 -10 2 0 4 5 4 10 0 6 -5 10 -11 10 -5 0
-7 -4 -4 -10z"/>
<path d="M2050 1019 c0 -5 5 -7 10 -4 6 3 10 8 10 11 0 2 -4 4 -10 4 -5 0 -10
-5 -10 -11z"/>
<path d="M3415 1020 c3 -5 8 -10 11 -10 2 0 4 5 4 10 0 6 -5 10 -11 10 -5 0
-7 -4 -4 -10z"/>
<path d="M2516 1007 c3 -10 9 -15 12 -12 3 3 0 11 -7 18 -10 9 -11 8 -5 -6z"/>
<path d="M2756 1007 c3 -10 9 -15 12 -12 3 3 0 11 -7 18 -10 9 -11 8 -5 -6z"/>
<path d="M3070 1006 c0 -2 7 -7 16 -10 8 -3 12 -2 9 4 -6 10 -25 14 -25 6z"/>
</g>
</svg>
